<?xml version="1.0" encoding="utf-8"?>
<svg viewBox="0 0 500 500" xmlns="http://www.w3.org/2000/svg">
  <path d="M 457.149 292.127 L 291.414 292.127 L 291.414 457.862 C 291.414 480.746 272.864 499.296 249.98 499.296 C 227.096 499.296 208.546 480.746 208.546 457.862 L 208.546 292.127 L 42.813 292.127 C 19.929 292.127 1.379 273.577 1.379 250.693 C 1.379 227.809 19.929 209.259 42.813 209.259 L 208.548 209.259 L 208.548 43.526 C 208.548 20.642 227.098 2.092 249.982 2.092 C 272.866 2.092 291.414 20.642 291.414 43.526 L 291.414 209.261 L 457.149 209.261 C 480.033 209.261 498.583 227.811 498.583 250.695 C 498.583 273.579 480.03 292.127 457.149 292.127 Z" style="fill: rgb(113, 113, 113);"/>
</svg>