<?xml version="1.0" encoding="utf-8"?>
<svg version="1.1" id="Capa_1" x="0px" y="0px" viewBox="0 0 495.77 495.77" style="enable-background:new 0 0 495.77 495.77;" xmlns="http://www.w3.org/2000/svg">
  <g>
    <path d="M246.132,378.252l26.506-26.512l-22.947-22.936l-26.494,26.496c-17.679,17.682-48.506,17.682-66.171,0L73.01,271.307 c-1.23-1.233-1.936-2.957-1.936-4.73c0-1.775,0.706-3.496,1.973-4.763l54.826-54.823l-22.947-22.938L50.13,238.868 c-7.324,7.272-11.492,17.384-11.492,27.708c0,10.323,4.167,20.438,11.456,27.691l83.983,83.984 c14.97,14.967,34.866,23.211,56.024,23.211C211.262,401.463,231.177,393.219,246.132,378.252z" style="fill: rgb(255, 255, 255);"/>
    <path d="M445.677,123.335L333.347,11.004c-14.693-14.658-40.633-14.691-55.37,0.017l-138.65,138.643l11.461,11.443l144.784,144.77 l11.474,11.455l138.629-138.627c7.386-7.371,11.455-17.222,11.455-27.679C457.132,140.558,453.063,130.721,445.677,123.335z" style="fill: rgb(255, 255, 255);"/>
    <path d="M233.883,418.205c0,8.965,7.256,16.221,16.218,16.221h83.063c8.966,0,16.222-7.256,16.222-16.221 c0-8.961-7.256-16.217-16.222-16.217H250.1C241.139,401.988,233.883,409.244,233.883,418.205z" style="fill: rgb(255, 255, 255);"/>
    <path d="M398.794,463.332H161.064c-8.948,0-16.217,7.254-16.217,16.217c0,8.978,7.269,16.221,16.217,16.221h237.729 c8.962,0,16.218-7.242,16.218-16.221C415.012,470.586,407.756,463.332,398.794,463.332z" style="fill: rgb(255, 255, 255);"/>
  </g>
  <g/>
  <g/>
  <g/>
  <g/>
  <g/>
  <g/>
  <g/>
  <g/>
  <g/>
  <g/>
  <g/>
  <g/>
  <g/>
  <g/>
  <g/>
</svg>