<?xml version="1.0" encoding="utf-8"?>
<svg height="511pt" viewBox="0 -26 511.81197 511" width="511pt" xmlns="http://www.w3.org/2000/svg">
  <path d="m504.148438 354.371094-183.304688-313.832032c-12.300781-24.597656-37.4375-40.132812-64.9375-40.132812s-52.636719 15.535156-64.9375 40.132812l-183.304688 313.832032c-11.253906 22.503906-10.050781 49.234375 3.179688 70.636718 13.226562 21.402344 36.59375 34.433594 61.757812 34.433594h366.609376c25.160156 0 48.53125-13.03125 61.757812-34.433594 13.230469-21.402343 14.429688-48.132812 3.179688-70.636718zm-248.242188 60.929687c-19.5 0-35.3125-15.808593-35.3125-35.308593s15.8125-35.308594 35.3125-35.308594 35.308594 15.808594 35.308594 35.308594-15.808594 35.308593-35.308594 35.308593zm35.308594-141.238281c0 19.5-15.808594 35.308594-35.308594 35.308594s-35.3125-15.808594-35.3125-35.308594v-167.726562c0-19.5 15.8125-35.308594 35.3125-35.308594s35.308594 15.808594 35.308594 35.308594zm0 0" style="fill: rgb(193, 193, 193);"/>
</svg>