<?xml version="1.0" encoding="utf-8"?>
<svg id="Capa_1" enable-background="new 0 0 515.556 515.556" height="512" viewBox="0 0 515.556 515.556" width="512" xmlns="http://www.w3.org/2000/svg">
  <path d="m515.556 257.779c-37.609-112.56-138.666-193.334-257.778-193.334-42.638 0-82.851 10.524-118.747 29.022l-61.245-61.244-45.564 45.564 405.546 405.546 45.564-45.564-52.501-52.501c38.23-33.21 67.884-77.094 84.723-127.491zm-257.778-128.889c71.184 0 128.889 57.705 128.889 128.889 0 23.899-6.779 46.04-18.206 65.119l-48.444-48.444c1.436-5.312 2.205-10.899 2.205-16.676 0-35.593-28.853-64.444-64.444-64.444-5.758 0-11.283.869-16.583 2.297l-48.141-48.141c19.051-11.402 40.862-18.6 64.724-18.6z" style="fill: rgb(255, 255, 255);"/>
  <path d="m257.778 386.668c-71.184 0-128.889-57.706-128.889-128.889 0-11.47 1.977-22.387 4.789-32.971l-72.03-72.03c-27.077 29.651-48.377 65.282-61.648 105.001 37.609 112.56 138.666 193.333 257.778 193.333 30.476 0 59.74-5.357 87.093-15.112l-54.121-54.121c-10.585 2.812-21.503 4.789-32.972 4.789z" style="fill: rgb(255, 255, 255);"/>
</svg>