<?xml version="1.0" encoding="utf-8"?>
<svg id="bold" enable-background="new 0 0 24 24" height="512" viewBox="0 0 24 24" width="512" xmlns="http://www.w3.org/2000/svg">
  <path d="m23.744 21.406-5.28-8.579c-.301-.51-.861-.827-1.464-.827s-1.163.317-1.456.815l-5.271 8.565c-.725 1.073.056 2.62 1.439 2.62h10.576c1.399 0 2.149-1.574 1.456-2.594zm-6.744 1.094c-.552 0-1-.448-1-1s.448-1 1-1 1 .448 1 1-.448 1-1 1zm1-4c0 .552-.447 1-1 1s-1-.448-1-1v-3c0-.552.447-1 1-1s1 .448 1 1z" style="fill: rgb(193, 193, 193);"/>
  <path d="m19 0h-16c-1.657 0-3 1.343-3 3s1.343 3 3 3h16c1.657 0 3-1.343 3-3s-1.343-3-3-3zm-16 4c-.552 0-1-.448-1-1s.448-1 1-1 1 .448 1 1-.448 1-1 1zm4 0c-.552 0-1-.448-1-1s.448-1 1-1 1 .448 1 1-.448 1-1 1z" style="fill: rgb(193, 193, 193);"/>
  <path d="m19 8h-16c-1.66 0-3 1.34-3 3s1.34 3 3 3h9.47l1.37-2.23c.63-1.08 1.85-1.77 3.16-1.77s2.53.69 3.19 1.81l.85 1.38c.59-.54.96-1.32.96-2.19 0-1.66-1.34-3-3-3zm-16 4c-.55 0-1-.45-1-1s.45-1 1-1 1 .45 1 1-.45 1-1 1zm4 0c-.55 0-1-.45-1-1s.45-1 1-1 1 .45 1 1-.45 1-1 1z" style="fill: rgb(193, 193, 193);"/>
  <path d="m3 16c-1.66 0-3 1.34-3 3s1.34 3 3 3h5.02c.04-.63.25-1.22.6-1.74l2.62-4.26zm0 4c-.55 0-1-.45-1-1s.45-1 1-1 1 .45 1 1-.45 1-1 1zm4 0c-.55 0-1-.45-1-1s.45-1 1-1 1 .45 1 1-.45 1-1 1z" style="fill: rgb(193, 193, 193);"/>
</svg>