<?xml version="1.0" encoding="utf-8"?>
<svg version="1.1" id="Capa_1" x="0px" y="0px" viewBox="0 0 477.867 477.867" style="enable-background:new 0 0 477.867 477.867;" xmlns="http://www.w3.org/2000/svg">
  <g>
    <g>
      <path d="M 392.533 0 L 85.333 0 C 38.228 0.056 0.056 38.228 0 85.333 L 0 392.533 C 0.056 439.638 38.228 477.81 85.333 477.866 L 392.533 477.866 C 439.638 477.81 477.81 439.638 477.866 392.533 L 477.866 85.333 C 477.81 38.228 439.638 0.056 392.533 0 Z M 324.267 256 L 153.6 256 C 144.174 256 136.533 248.359 136.533 238.933 C 136.533 229.507 144.174 221.866 153.6 221.866 L 324.267 221.867 C 333.693 221.867 341.334 229.508 341.334 238.934 C 341.334 248.36 333.692 256 324.267 256 Z" style="fill: rgb(128, 128, 128);"/>
    </g>
  </g>
  <g/>
  <g/>
  <g/>
  <g/>
  <g/>
  <g/>
  <g/>
  <g/>
  <g/>
  <g/>
  <g/>
  <g/>
  <g/>
  <g/>
  <g/>
</svg>