<?xml version="1.0" encoding="utf-8"?>
<svg id="Layer_1" enable-background="new 0 0 512 512" height="512" viewBox="0 0 512 512" width="512" xmlns="http://www.w3.org/2000/svg">
  <g>
    <path d="m475.047 40.484h-438.094c-20.408 0-36.953 16.545-36.953 36.953v67.492h512v-67.492c0-20.408-16.544-36.953-36.953-36.953zm-410.962 68.152c-8.861 0-16.045-7.184-16.045-16.045s7.183-16.045 16.045-16.045c8.861 0 16.045 7.184 16.045 16.045s-7.184 16.045-16.045 16.045zm65.24 0c-8.861 0-16.045-7.184-16.045-16.045s7.183-16.045 16.045-16.045c8.861 0 16.045 7.184 16.045 16.045s-7.184 16.045-16.045 16.045zm68.197 0c-8.861 0-16.045-7.184-16.045-16.045s7.184-16.045 16.045-16.045 16.045 7.184 16.045 16.045-7.183 16.045-16.045 16.045z" style="fill: rgb(193, 193, 193);"/>
    <path d="m0 176.808v257.755c0 20.409 16.545 36.953 36.953 36.953h438.094c20.409 0 36.953-16.544 36.953-36.953v-257.755zm168.744 119.001-20.864 60.698c-2.18 6.342-8.095 10.64-14.799 10.756-.092.001-.185.002-.277.002-6.594 0-12.52-4.066-14.884-10.242l-7.539-19.7-6.594 19.184c-2.18 6.342-8.095 10.64-14.799 10.756-.092.001-.185.002-.277.002-6.594 0-12.521-4.066-14.884-10.242l-23.23-60.698c-3.146-8.221.968-17.437 9.189-20.583 8.22-3.151 17.437.967 20.583 9.189l7.539 19.7 6.594-19.184c3.26-11.557 23.118-16.481 29.96-.516l7.539 19.7 6.594-19.184c2.862-8.324 11.93-12.75 20.255-9.893 8.327 2.862 12.756 11.931 9.894 20.255zm146.423 0-20.864 60.698c-2.18 6.342-8.095 10.64-14.799 10.756-.092.001-.185.002-.277.002-6.594 0-12.521-4.066-14.884-10.242l-7.539-19.7-6.594 19.184c-2.18 6.342-8.095 10.64-14.799 10.756-.092.001-.185.002-.277.002-6.594 0-12.521-4.066-14.884-10.242l-23.23-60.698c-3.146-8.221.968-17.437 9.189-20.583 8.221-3.151 17.437.967 20.583 9.189l7.539 19.7 6.594-19.184c3.653-12.349 24.048-15.321 29.96-.516l7.539 19.7 6.594-19.184c2.862-8.324 11.929-12.75 20.255-9.893 8.327 2.862 12.756 11.931 9.894 20.255zm146.424 0-20.864 60.698c-2.18 6.342-8.095 10.64-14.799 10.756-.092.001-.185.002-.277.002-6.594 0-12.521-4.066-14.884-10.242l-7.539-19.7-6.594 19.184c-2.18 6.342-8.095 10.64-14.799 10.756-.092.001-.185.002-.277.002-6.594 0-12.52-4.066-14.884-10.242l-23.231-60.698c-3.146-8.221.968-17.437 9.189-20.583 8.223-3.151 17.438.967 20.584 9.189l7.54 19.701 6.594-19.185c3.615-11.875 23.303-16.269 29.96-.516l7.539 19.7 6.594-19.184c2.862-8.324 11.931-12.75 20.255-9.893 8.325 2.862 12.754 11.931 9.893 20.255z" style="fill: rgb(193, 193, 193);"/>
  </g>
</svg>